<svg width="64" height="13" viewBox="0 0 64 13" fill="none" xmlns="http://www.w3.org/2000/svg">
<path d="M4.82191 12.0455C4.11501 12.0455 3.46702 11.9223 2.87794 11.676C2.29956 11.4189 1.80152 11.0547 1.38381 10.5835C0.966096 10.1122 0.639423 9.5392 0.40379 8.86443C0.178867 8.18966 0.0664062 7.42385 0.0664062 6.56701C0.0664062 5.71016 0.178867 4.94971 0.40379 4.28565C0.639423 3.61088 0.966096 3.04858 1.38381 2.59873C1.80152 2.13818 2.29956 1.79008 2.87794 1.55445C3.46702 1.30811 4.11501 1.18493 4.82191 1.18493C5.52881 1.18493 6.17144 1.30811 6.74981 1.55445C7.3389 1.79008 7.84229 2.13818 8.26001 2.59873C8.67772 3.05929 8.99904 3.62695 9.22396 4.30172C9.45959 4.96577 9.57741 5.72087 9.57741 6.56701C9.57741 7.42385 9.45959 8.18966 9.22396 8.86443C8.99904 9.5392 8.67772 10.1122 8.26001 10.5835C7.84229 11.0547 7.3389 11.4189 6.74981 11.676C6.17144 11.9223 5.52881 12.0455 4.82191 12.0455ZM4.82191 10.0051C5.53952 10.0051 6.10718 9.69985 6.52489 9.08935C6.94261 8.46814 7.15146 7.62735 7.15146 6.56701C7.15146 5.51737 6.94261 4.69801 6.52489 4.10893C6.10718 3.51984 5.53952 3.2253 4.82191 3.2253C4.1043 3.2253 3.53664 3.51984 3.11892 4.10893C2.70121 4.69801 2.49236 5.51737 2.49236 6.56701C2.49236 7.62735 2.70121 8.46814 3.11892 9.08935C3.53664 9.69985 4.1043 10.0051 4.82191 10.0051Z" fill="#131313"/>
<path d="M15.5313 12.0455C15.1779 12.0455 14.8191 11.9598 14.4549 11.7884C14.1015 11.6063 13.7694 11.3439 13.4588 11.0012H13.3946L13.2018 11.8527H11.3542V0.590497H13.7159V3.35383L13.6516 4.57484C13.9622 4.29636 14.2943 4.08215 14.6477 3.9322C15.0119 3.77154 15.3814 3.69121 15.7562 3.69121C16.2382 3.69121 16.672 3.78761 17.0576 3.9804C17.4432 4.17319 17.7698 4.44631 18.0376 4.79976C18.3161 5.1425 18.5249 5.56557 18.6642 6.06896C18.8141 6.56165 18.8891 7.11325 18.8891 7.72375C18.8891 8.40923 18.7927 9.01973 18.5999 9.55526C18.4178 10.0908 18.1661 10.546 17.8448 10.9209C17.5342 11.285 17.1754 11.5635 16.7684 11.7563C16.3721 11.9491 15.9598 12.0455 15.5313 12.0455ZM14.9851 10.1176C15.3921 10.1176 15.7402 9.93549 16.0294 9.57133C16.3186 9.19646 16.4631 8.59666 16.4631 7.77195C16.4631 6.33673 16.0026 5.61912 15.0815 5.61912C14.6102 5.61912 14.155 5.86011 13.7159 6.34208V9.60346C13.9301 9.79625 14.1443 9.93013 14.3585 10.0051C14.5727 10.0801 14.7816 10.1176 14.9851 10.1176Z" fill="#131313"/>
<path d="M22.2698 11.8527L19.5868 3.884H21.9646L22.9928 7.64342C23.0999 8.03971 23.2017 8.44672 23.2981 8.86443C23.4052 9.27143 23.5123 9.68379 23.6194 10.1015H23.6836C23.78 9.68379 23.8764 9.27143 23.9728 8.86443C24.0799 8.44672 24.187 8.03971 24.2941 7.64342L25.3384 3.884H27.6037L25.001 11.8527H22.2698Z" fill="#131313"/>
<path d="M28.8478 11.8527V3.884H31.2095V11.8527H28.8478ZM30.0206 2.71119C29.6243 2.71119 29.2977 2.59873 29.0406 2.37381C28.7836 2.13818 28.655 1.83828 28.655 1.47412C28.655 1.10996 28.7836 0.815419 29.0406 0.590497C29.2977 0.365574 29.6243 0.253113 30.0206 0.253113C30.4276 0.253113 30.7543 0.365574 31.0006 0.590497C31.2577 0.815419 31.3862 1.10996 31.3862 1.47412C31.3862 1.83828 31.2577 2.13818 31.0006 2.37381C30.7543 2.59873 30.4276 2.71119 30.0206 2.71119Z" fill="#131313"/>
<path d="M34.6535 12.0455C34.2465 12.0455 33.9038 11.9062 33.6253 11.6278C33.3575 11.3386 33.2236 10.9851 33.2236 10.5674C33.2236 10.139 33.3575 9.78554 33.6253 9.50706C33.9038 9.21788 34.2465 9.07329 34.6535 9.07329C35.0605 9.07329 35.3979 9.21788 35.6656 9.50706C35.9441 9.78554 36.0834 10.139 36.0834 10.5674C36.0834 10.9851 35.9441 11.3386 35.6656 11.6278C35.3979 11.9062 35.0605 12.0455 34.6535 12.0455Z" fill="#131313"/>
<path d="M40.2734 12.0455C39.8664 12.0455 39.5237 11.9812 39.2452 11.8527C38.9667 11.7242 38.7418 11.5474 38.5704 11.3225C38.4098 11.0869 38.292 10.8084 38.217 10.4871C38.142 10.1551 38.1045 9.78554 38.1045 9.37854V0.590497H40.4662V9.47493C40.4662 9.72128 40.5091 9.89264 40.5947 9.98904C40.6911 10.0854 40.7875 10.1336 40.8839 10.1336C40.9375 10.1336 40.9803 10.1336 41.0124 10.1336C41.0553 10.1336 41.1088 10.1229 41.1731 10.1015L41.4623 11.8527C41.3338 11.9062 41.1678 11.9491 40.9643 11.9812C40.7715 12.0241 40.5412 12.0455 40.2734 12.0455Z" fill="#131313"/>
<path d="M42.7015 11.8527V3.884H45.0632V11.8527H42.7015ZM43.8743 2.71119C43.478 2.71119 43.1513 2.59873 42.8943 2.37381C42.6372 2.13818 42.5087 1.83828 42.5087 1.47412C42.5087 1.10996 42.6372 0.815419 42.8943 0.590497C43.1513 0.365574 43.478 0.253113 43.8743 0.253113C44.2813 0.253113 44.608 0.365574 44.8543 0.590497C45.1114 0.815419 45.2399 1.10996 45.2399 1.47412C45.2399 1.83828 45.1114 2.13818 44.8543 2.37381C44.608 2.59873 44.2813 2.71119 43.8743 2.71119Z" fill="#131313"/>
<path d="M47.1416 11.8527V3.884H49.0695L49.2302 4.89615H49.2944C49.6371 4.57484 50.012 4.29636 50.419 4.06073C50.826 3.81438 51.3027 3.69121 51.8489 3.69121C52.7164 3.69121 53.343 3.97504 53.7286 4.54271C54.1249 5.11037 54.323 5.89759 54.323 6.90439V11.8527H51.9614V7.20964C51.9614 6.63127 51.881 6.23498 51.7204 6.02077C51.5704 5.80655 51.3241 5.69945 50.9813 5.69945C50.6814 5.69945 50.4244 5.76907 50.2102 5.90831C49.996 6.03683 49.7603 6.22427 49.5033 6.47061V11.8527H47.1416Z" fill="#131313"/>
<path d="M56.3355 11.8527V0.590497H58.633V7.04898H58.6972L61.2196 3.884H63.7901L60.9946 7.16144L63.999 11.8527H61.4445L59.6451 8.75197L58.633 9.89264V11.8527H56.3355Z" fill="#131313"/>
</svg>
