<svg width="24" height="16" viewBox="0 0 24 16" fill="none" xmlns="http://www.w3.org/2000/svg">
<path d="M13.4513 3.1423L8.0708 0V1.3467H4.93215C2.2082 1.3467 0 3.55747 0 6.2846C0 9.01172 2.2082 11.2225 4.93215 11.2225H12.5546C15.1274 11.2225 17.2401 9.25025 17.4666 6.7335H15.6614C15.4439 8.2563 14.1358 9.42689 12.5546 9.42689H4.93215C3.19873 9.42689 1.79351 8.02004 1.79351 6.2846C1.79351 4.54915 3.19873 3.1423 4.93215 3.1423L13.4513 3.1423Z" fill="#131313"/>
<path d="M10.3127 12.1203H18.3634C20.0968 12.1203 21.502 10.7134 21.502 8.97799C21.502 7.24255 20.0968 5.8357 18.3634 5.8357H10.741C9.15977 5.8357 7.85167 7.00629 7.6341 8.52909H5.82891C6.05544 6.01234 8.16815 4.0401 10.741 4.0401H18.3634C21.0873 4.0401 23.2955 6.25087 23.2955 8.97799C23.2955 11.7051 21.0873 13.9159 18.3634 13.9159H15.2448V15.2626L10.3127 12.1203Z" fill="#131313"/>
</svg>
