<svg width="87" height="22" viewBox="0 0 87 22" fill="none" xmlns="http://www.w3.org/2000/svg">
<path d="M7.90261 21.5854L0.683303 1.77568H4.75499L9.46198 15.4057C9.53898 15.5982 9.61599 15.8196 9.693 16.0699C9.77 16.3202 9.84701 16.5608 9.92401 16.7918C10.001 17.0036 10.0684 17.1961 10.1262 17.3694H10.2705C10.3283 17.2154 10.386 17.0325 10.4438 16.8207C10.5208 16.6089 10.5978 16.3876 10.6748 16.1565C10.7518 15.9063 10.8288 15.6656 10.9058 15.4346L15.5839 1.77568H19.4824L12.2631 21.5854H7.90261ZM26.1557 21.932C24.5386 21.932 23.191 21.6528 22.1129 21.0945C21.0348 20.517 20.2263 19.6411 19.6872 18.4667C19.1482 17.2924 18.8787 15.8004 18.8787 13.9907C18.8787 12.1619 19.1482 10.6699 19.6872 9.51477C20.2263 8.34043 21.0348 7.47412 22.1129 6.91582C23.191 6.33828 24.5386 6.04951 26.1557 6.04951C27.6188 6.04951 28.8413 6.32865 29.8231 6.88695C30.8242 7.42599 31.575 8.26343 32.0755 9.39926C32.5761 10.5351 32.8263 12.0078 32.8263 13.8175V14.8571H22.4883C22.5268 15.8004 22.6712 16.5993 22.9215 17.2539C23.1717 17.8892 23.5568 18.3705 24.0766 18.6977C24.6156 19.0058 25.3183 19.1598 26.1846 19.1598C26.6274 19.1598 27.0413 19.102 27.4263 18.9865C27.8113 18.871 28.1482 18.6977 28.437 18.4667C28.7258 18.2164 28.9472 17.9084 29.1012 17.5426C29.2745 17.1769 29.3611 16.7533 29.3611 16.272H32.8263C32.8263 17.2346 32.6531 18.0721 32.3066 18.7844C31.9793 19.4967 31.5076 20.0838 30.8916 20.5459C30.2948 21.0079 29.5921 21.3544 28.7835 21.5854C27.975 21.8165 27.099 21.932 26.1557 21.932ZM22.5461 12.3736H29.1589C29.1589 11.7383 29.0819 11.1993 28.9279 10.7565C28.7932 10.3137 28.591 9.94793 28.3215 9.65916C28.0712 9.37039 27.7632 9.16825 27.3974 9.05274C27.0317 8.91798 26.6177 8.8506 26.1557 8.8506C25.4049 8.8506 24.7696 8.97573 24.2498 9.226C23.7493 9.47627 23.3642 9.8613 23.0947 10.3811C22.8252 10.9009 22.6423 11.5651 22.5461 12.3736ZM33.5097 21.5854L38.9386 13.7597L33.8851 6.39603H38.1589L41.1622 11.103H41.3354L44.3964 6.39603H48.4103L43.328 13.6731L48.6991 21.5854H44.483L41.1044 16.3298H40.9311L37.5236 21.5854H33.5097ZM50.2844 4.05698V0.707222H53.8075V4.05698H50.2844ZM50.2844 21.5854V6.39603H53.8075V21.5854H50.2844ZM63.7399 21.932C62.0842 21.932 60.6981 21.6528 59.5815 21.0945C58.465 20.517 57.6275 19.6411 57.0692 18.4667C56.5109 17.2924 56.2318 15.8004 56.2318 13.9907C56.2318 12.1619 56.5109 10.6699 57.0692 9.51477C57.6275 8.34043 58.465 7.47412 59.5815 6.91582C60.6981 6.33828 62.0842 6.04951 63.7399 6.04951C65.4147 6.04951 66.8008 6.33828 67.8982 6.91582C69.0148 7.47412 69.8522 8.34043 70.4105 9.51477C70.9688 10.6699 71.2479 12.1619 71.2479 13.9907C71.2479 15.8004 70.9688 17.2924 70.4105 18.4667C69.8522 19.6411 69.0148 20.517 67.8982 21.0945C66.8008 21.6528 65.4147 21.932 63.7399 21.932ZM63.7399 19.0443C64.6639 19.0443 65.4051 18.871 65.9634 18.5245C66.5409 18.1587 66.9549 17.6196 67.2051 16.9073C67.4746 16.1758 67.6094 15.271 67.6094 14.1929V13.7886C67.6094 12.7105 67.4746 11.8153 67.2051 11.103C66.9549 10.3715 66.5409 9.83242 65.9634 9.4859C65.4051 9.12012 64.6639 8.93723 63.7399 8.93723C62.8158 8.93723 62.065 9.12012 61.4874 9.4859C60.9291 9.83242 60.5152 10.3715 60.2457 11.103C59.9954 11.8153 59.8703 12.7105 59.8703 13.7886V14.1929C59.8703 15.271 59.9954 16.1758 60.2457 16.9073C60.5152 17.6196 60.9291 18.1587 61.4874 18.5245C62.065 18.871 62.8158 19.0443 63.7399 19.0443ZM73.6637 21.5854V6.39603H76.6092L76.8979 8.41744H77.1001C77.4466 7.9554 77.8509 7.55112 78.3129 7.2046C78.7942 6.83882 79.3333 6.55967 79.93 6.36716C80.5461 6.15539 81.2199 6.04951 81.9515 6.04951C82.914 6.04951 83.7611 6.22277 84.4926 6.5693C85.2435 6.91582 85.8306 7.47412 86.2542 8.24418C86.6777 9.01423 86.8895 10.0442 86.8895 11.334V21.5854H83.3376V11.9693C83.3376 11.4303 83.2702 10.9875 83.1354 10.641C83.0199 10.2752 82.837 9.98643 82.5868 9.77467C82.3557 9.54365 82.067 9.38001 81.7204 9.28376C81.3739 9.1875 80.9889 9.13937 80.5653 9.13937C79.93 9.13937 79.3525 9.29338 78.8327 9.6014C78.3322 9.90943 77.9279 10.333 77.6199 10.872C77.3311 11.411 77.1867 12.0367 77.1867 12.749V21.5854H73.6637Z" fill="white"/>
</svg>
